{
  "accessors": [
    {
      "bufferView": 2,
      "componentType": 5126,
      "count": 4056,
      "max": [
        2.4960100650787354,
        2.4960100650787354,
        4.996009826660156
      ],
      "min": [
        -2.496009349822998,
        -2.496009349822998,
        0.00399017333984375
      ],
      "type": "VEC3"
    },
    {
      "bufferView": 2,
      "byteOffset": 48672,
      "componentType": 5126,
      "count": 4056,
      "max": [
        0.9984188675880432,
        0.998418927192688,
        0.998418927192688
      ],
      "min": [
        -0.9984189867973328,
        -0.998418927192688,
        -0.998418927192688
      ],
      "type": "VEC3"
    },
    {
      "bufferView": 3,
      "componentType": 5126,
      "count": 4056,
      "max": [
        0.9995065331459045,
        0.7071602940559387,
        0.9995107650756836,
        1.0
      ],
      "min": [
        -0.9995129704475403,
        -0.9995092153549194,
        -0.7071691155433655,
        1.0
      ],
      "type": "VEC4"
    },
    {
      "bufferView": 1,
      "componentType": 5126,
      "count": 4056,
      "max": [
        0.997999906539917,
        0.975609540939331
      ],
      "min": [
        0.0020000000949949026,
        0.0020000000949949026
      ],
      "type": "VEC2"
    },
    {
      "bufferView": 0,
      "componentType": 5125,
      "count": 22500,
      "type": "SCALAR"
    }
  ],
  "asset": {
    "extras": {
      "author": "ARCTIC  WOLVES™ (https://sketchfab.com/arctic.wolves)",
      "license": "CC-BY-4.0 (http://creativecommons.org/licenses/by/4.0/)",
      "source": "https://sketchfab.com/3d-models/mars-156a95dfec244e07a3ae423f579ffb05",
      "title": "Mars"
    },
    "generator": "Sketchfab-11.26.0",
    "version": "2.0"
  },
  "bufferViews": [
    {
      "buffer": 0,
      "byteLength": 90000,
      "name": "floatBufferViews",
      "target": 34963
    },
    {
      "buffer": 0,
      "byteLength": 32448,
      "byteOffset": 90000,
      "byteStride": 8,
      "name": "floatBufferViews",
      "target": 34962
    },
    {
      "buffer": 0,
      "byteLength": 97344,
      "byteOffset": 122448,
      "byteStride": 12,
      "name": "floatBufferViews",
      "target": 34962
    },
    {
      "buffer": 0,
      "byteLength": 64896,
      "byteOffset": 219792,
      "byteStride": 16,
      "name": "floatBufferViews",
      "target": 34962
    }
  ],
  "buffers": [
    {
      "byteLength": 284688,
      "uri": "scene.bin"
    }
  ],
  "images": [
    {
      "uri": "textures/MarsLOD1_baseColor.png"
    },
    {
      "uri": "textures/MarsLOD1_normal.png"
    }
  ],
  "materials": [
    {
      "doubleSided": true,
      "name": "MarsLOD1",
      "normalTexture": {
        "index": 1
      },
      "pbrMetallicRoughness": {
        "baseColorTexture": {
          "index": 0
        },
        "metallicFactor": 0.0
      }
    }
  ],
  "meshes": [
    {
      "name": "Mars_LOD0_MarsLOD1_0",
      "primitives": [
        {
          "attributes": {
            "NORMAL": 1,
            "POSITION": 0,
            "TANGENT": 2,
            "TEXCOORD_0": 3
          },
          "indices": 4,
          "material": 0,
          "mode": 4
        }
      ]
    }
  ],
  "nodes": [
    {
      "children": [
        1
      ],
      "matrix": [
        1.0,
        0.0,
        0.0,
        0.0,
        0.0,
        2.220446049250313e-16,
        -1.0,
        0.0,
        0.0,
        1.0,
        2.220446049250313e-16,
        0.0,
        0.0,
        0.0,
        0.0,
        1.0
      ],
      "name": "Sketchfab_model"
    },
    {
      "children": [
        2
      ],
      "matrix": [
        1.0,
        0.0,
        0.0,
        0.0,
        0.0,
        -1.0,
        0.0,
        0.0,
        0.0,
        0.0,
        -1.0,
        0.0,
        0.0,
        0.0,
        0.0,
        1.0
      ],
      "name": "3625ddd9ddcb4fa282884ad86c73accb.fbx"
    },
    {
      "children": [
        3
      ],
      "name": "RootNode"
    },
    {
      "children": [
        4
      ],
      "matrix": [
        1.0,
        0.0,
        0.0,
        0.0,
        0.0,
        -4.3711388064693324e-08,
        0.999999999999999,
        0.0,
        0.0,
        -0.999999999999999,
        -4.3711388064693324e-08,
        0.0,
        0.0,
        0.0,
        0.0,
        1.0
      ],
      "name": "Mars_LOD0"
    },
    {
      "children": [
        5
      ],
      "matrix": [
        1.0,
        0.0,
        0.0,
        0.0,
        0.0,
        6.123233995736766e-17,
        -1.0,
        0.0,
        -0.0,
        1.0,
        6.123233995736766e-17,
        0.0,
        0.0,
        -2.5,
        0.0,
        1.0
      ],
      "name": "Object_4"
    },
    {
      "mesh": 0,
      "name": "Mars_LOD0_MarsLOD1_0"
    }
  ],
  "samplers": [
    {
      "magFilter": 9729,
      "minFilter": 9987,
      "wrapS": 10497,
      "wrapT": 10497
    }
  ],
  "scene": 0,
  "scenes": [
    {
      "name": "Sketchfab_Scene",
      "nodes": [
        0
      ]
    }
  ],
  "textures": [
    {
      "sampler": 0,
      "source": 0
    },
    {
      "sampler": 0,
      "source": 1
    }
  ]
}
